#!OML:ASF F:\VICON\USERDATA\Patient Classification 1\PLAYGROUND\JustinFriday\JustinFriday.ASF
:FULLY-SPECIFIED
:DEGREES
2256
root -20.9156 17.6289 11.0131 181.037 0.205512 -177.09
lowerback 10.6115 1.70107 -0.595452
upperback 2.95656 2.57902 2.1221
thorax -2.9873 1.41459 2.19472
lowerneck -5.30332 3.89574 -1.20107
upperneck 20.2845 5.88014 -9.7199
head 7.35391 1.28421 -2.58316
rclavicle -1.8487e-014 -2.78299e-015
rhumerus -47.3251 -31.6967 -46.9567
rradius 31.3648
rwrist 2.4
rhand -13.3165 -373.707
rfingers 7.12502
rthumb 12.7881 -403.296
lclavicle -1.8487e-014 -2.78299e-015
lhumerus -25.4798 29.5483 34.768
lradius 46.5911
lwrist 21.4586
lhand -30.1567 -3.20518
lfingers 7.12502
lthumb -3.46881 26.7463
rfemur -16.0838 -2.13157 12.637
rtibia 40.3704
rfoot -21.3353 -23.2329
rtoes 26.9374
lfemur -3.72746 5.31613 -17.9222
ltibia 21.9548
lfoot -16.5202 1.95688
ltoes -0.0904826
2257
root -20.9532 17.6335 10.9861 181.348 -0.132801 -177.183
lowerback 10.2966 2.22962 -0.687858
upperback 2.88009 2.6822 2.10251
thorax -2.90378 1.21396 2.23398
lowerneck -10.5445 3.32773 -6.10411
upperneck 25.3083 5.45325 -4.62272
head 9.75223 0.767978 -0.0764572
rclavicle 2.1916e-014 -3.22031e-014
rhumerus -46.8445 -32.0757 -48.4474
rradius 30.2344
rwrist 2.03932
rhand -13.9639 -378.148
rfingers 7.12502
rthumb 12.1639 -407.774
lclavicle 2.1916e-014 -3.22031e-014
lhumerus -25.178 30.0162 34.7084
lradius 47.0121
lwrist 21.3871
lhand -28.5015 -7.37323
lfingers 7.12502
lthumb -1.87025 22.5983
rfemur -17.3215 -1.16389 12.6195
rtibia 41.7395
rfoot -19.8439 -21.3863
rtoes 24.6911
lfemur -3.91125 5.37691 -18.2016
ltibia 21.7453
lfoot -16.4304 1.53717
ltoes 0.596858
2258
root -20.9858 17.6397 10.9407 180.94 -2.67876 -177.449
lowerback 11.1683 1.69448 -0.826491
upperback 2.59065 1.97762 2.16435
thorax -3.65947 0.877206 2.44693
lowerneck -8.0255 2.9096 -4.31644
upperneck 23.6663 4.59838 -6.40131
head 8.78643 0.469563 -1.08954
rclavicle -1.96797e-014 4.57205e-015
rhumerus -47.621 -33.3189 -47.8069
rradius 28.2213
rwrist 4.39799
rhand -13.0155 -376.211
rfingers 7.12502
rthumb 13.0782 -405.781
lclavicle -1.96797e-014 4.57205e-015
lhumerus -25.0239 29.5935 35.1432
lradius 48.0159
lwrist 22.8573
lhand -28.8841 -8.53693
lfingers 7.12502
lthumb -2.23975 21.4311
rfemur -17.1467 -1.77881 12.5133
rtibia 43.1051
rfoot -18.4551 -20.0482
rtoes 21.1978
lfemur -3.48933 4.80706 -18.3657
ltibia 21.4354
lfoot -16.1979 -0.164498
ltoes 0.768776
2259
root -21.0176 17.6405 10.9176 180.775 -3.47133 -177.711
lowerback 10.9593 1.88068 -1.31993
upperback 3.02426 2.13472 2.33033
thorax -3.1254 0.935259 2.88641
lowerneck -9.38238 2.79565 -5.21067
upperneck 24.3674 4.66376 -5.79944
head 9.25589 0.437398 -0.721619
rclavicle 5.1684e-015 -2.78299e-015
rhumerus -47.7645 -36.0834 -46.4481
rradius 26.1153
rwrist 5.34281
rhand -10.6346 -372.588
rfingers 7.12502
rthumb 15.3725 -401.996
lclavicle 5.1684e-015 -2.78299e-015
lhumerus -23.9783 30.2403 36.2957
lradius 48.7208
lwrist 23.8287
lhand -29.5318 -8.98066
lfingers 7.12502
lthumb -2.86532 20.9798
rfemur -17.8644 -1.32058 12.3245
rtibia 44.5482
rfoot -16.9086 -17.9932
rtoes 18.0948
lfemur -3.15069 5.04525 -18.6729
ltibia 21.038
lfoot -16.0769 -1.09643
ltoes 1.163
2260
root -21.0494 17.6442 10.8836 180.634 -4.2879 -177.721
lowerback 12.3166 1.68205 -0.824443
upperback 2.34682 1.96487 1.88912
thorax -4.53645 0.881427 2.13503
lowerneck -8.73513 2.85447 -4.05701
upperneck 24.5664 4.50952 -6.05329
head 9.22588 0.432488 -1.02764
rclavicle 1.64991e-014 1.59028e-015
rhumerus -48.1258 -35.4884 -48.3473
rradius 25.8241
rwrist 5.20695
rhand -10.5162 -377.8
rfingers 7.12502
rthumb 15.4865 -407.2
lclavicle 1.64991e-014 1.59028e-015
lhumerus -24.2488 28.7236 35.8598
lradius 50.0467
lwrist 27.7318
lhand -32.1274 -7.57381
lfingers 7.12502
lthumb -5.37178 22.3381
rfemur -18.5479 -0.777186 12.4625
rtibia 45.9613
rfoot -16.8829 -15.9469
rtoes 16.2701
lfemur -2.72379 4.79319 -18.7223
ltibia 20.5867
lfoot -16.0388 -2.00452
ltoes 2.34164
2261
root -21.0758 17.6413 10.8468 180.47 -5.48547 -177.841
lowerback 11.5107 1.65403 -1.33412
upperback 2.8649 1.83947 2.16939
thorax -3.57141 0.800267 2.75594
lowerneck -7.9112 2.49363 -3.94356
upperneck 23.6554 3.99313 -6.4086
head 8.75721 0.244347 -1.21045
rclavicle 2.1419e-014 -6.75868e-015
rhumerus -47.5679 -37.0498 -48.4231
rradius 24.2966
rwrist 5.74319
rhand -10.2312 -376.585
rfingers 7.12502
rthumb 15.761 -405.964
lclavicle 2.1419e-014 -6.75868e-015
lhumerus -23.6939 30.5997 36.3578
lradius 50.1732
lwrist 24.7839
lhand -28.9654 -8.52899
lfingers 7.12502
lthumb -2.31828 21.4382
rfemur -19.0828 -0.610263 12.6053
rtibia 47.362
rfoot -16.4463 -14.3358
rtoes 11.5568
lfemur -2.40019 4.51635 -18.8367
ltibia 20.3213
lfoot -15.9577 -3.09659
ltoes 2.50016
2262
root -21.0983 17.6369 10.8127 180.478 -7.0096 -178.196
lowerback 11.1662 1.52951 -1.88281
upperback 3.09575 1.60494 2.25763
thorax -3.14541 0.675887 3.19979
lowerneck -8.3763 2.04347 -4.68065
upperneck 24.0308 3.38246 -5.58782
head 8.93797 -0.0349462 -0.867929
rclavicle 3.13086e-015 -2.66371e-014
rhumerus -47.286 -38.6415 -48.4757
rradius 23.0128
rwrist 6.39575
rhand -9.82467 -376.733
rfingers 7.12502
rthumb 16.1525 -406.08
lclavicle 3.13086e-015 -2.66371e-014
lhumerus -23.1803 31.5022 36.8902
lradius 50.3178
lwrist 23.4417
lhand -27.74 -10.0087
lfingers 7.12502
lthumb -1.13478 19.968
rfemur -19.7455 -0.919487 12.518
rtibia 48.7341
rfoot -16.2113 -12.4909
rtoes 8.83276
lfemur -2.43742 4.22527 -19.2039
ltibia 20.2789
lfoot -15.864 -4.16799
ltoes 1.98288
